<svg xmlns="http://www.w3.org/2000/svg" viewBox="0 0 275.95 94.75"><defs><style>.cls-1{fill:#fff;}.cls-2{fill:#242122;}.cls-3{fill:#ab162c;}.cls-4{fill:#fefefe;}.cls-5{fill:#231f20;}.cls-6{fill:#ab172c;}.cls-7{fill:#242021;}.cls-8{fill:#ab182e;}.cls-9{fill:#a9172c;}.cls-10{fill:#282425;}.cls-11{fill:#2b2829;}.cls-12{fill:#272324;}.cls-13{fill:#292526;}.cls-14{fill:#2c2325;}.cls-15{fill:#eee;}.cls-16{fill:#891829;}.cls-17{fill:#3b1d22;}.cls-18{fill:#9b172a;}.cls-19{fill:#ddd;}</style></defs><g id="Layer_2" data-name="Layer 2"><g id="Layer_1-2" data-name="Layer 1"><path class="cls-1" d="M137.84,65.2H2a1.94,1.94,0,0,1-.59,0C1,65,.06,65.69.05,64.64s.9-.55,1.36-.55q121.86,0,243.7,0h29.37c.32,0,.64,0,1,0s.39.32.39.61-.06.49-.38.5H137.84Z"/><path class="cls-2" d="M0,31.65C0,22.9,0,14.14,0,5.39A1.5,1.5,0,0,1,1,3.83,38,38,0,0,1,16.28.06a42.65,42.65,0,0,1,18.19,2.8C37.35,4,37.35,4,37.35,7.11q0,25.29,0,50.6c0,1.12-.31,1.36-1.38,1.35Q18.62,59,1.25,59C.26,59,0,58.8,0,57.79,0,49.08,0,40.36,0,31.65Z"/><path class="cls-1" d="M111.26,9c.65-.58,1.39-.33,2.08-.29,3.39.23,6.77-.26,10.16-.12,3.66.14,6.93,1.11,9.2,4.23,3.6,4.94,2.28,14.84-7.09,16.41a41.58,41.58,0,0,1-8.71.08,34.74,34.74,0,0,0-3.82.08c-.46,0-1,.18-1.35-.21a.44.44,0,0,1,.52-.4c1.44.11,1.7-.89,1.84-2a43.92,43.92,0,0,0,.13-5.5c0-3.12,0-6.23,0-9.35,0-2.18-.26-2.46-2.42-2.65C111.62,9.32,111.41,9.37,111.26,9Z"/><path class="cls-3" d="M67,36.13a31.38,31.38,0,0,1,7.25,0c0,.07,0,.18-.1.2-2.31.76-2.28.76-2.32,3.26,0,3.55.23,7.11-.15,10.66a6.49,6.49,0,0,1-5.24,6.08,18.31,18.31,0,0,1-9.93-.18,5.75,5.75,0,0,1-4.48-6c0-3.4,0-6.79,0-10.19,0-1.66.51-3.62-2.1-4h8.1c-2.12.65-1.92,2.4-1.95,4C56,43,56,46.16,56.05,49.28c0,3.9,2.09,6.06,6,6.32a12.22,12.22,0,0,0,4.38-.45c2.24-.69,3.45-2.3,3.52-5A82.69,82.69,0,0,0,69.75,39c-.21-2-.32-2.06-2.3-2.64A1.92,1.92,0,0,1,67,36.13Z"/><path class="cls-3" d="M146.18,56.35h-6.85c2.13-.56,1.61-2.27,1.62-3.7,0-3.2,0-6.39,0-9.59,0-2.18,0-2.18-1.94-3,.06-.09.13-.25.18-.24,2.91.2,5.82-.41,8.71,0,1.84.26,3.52.95,4.27,2.84s-.19,3.86-2.28,5.14c-.83.51-.84.78-.18,1.43,1.69,1.65,3.28,3.39,4.95,5a3.75,3.75,0,0,0,2.8,1.43c.19,0,.44,0,.45.27s-.23.42-.48.43c-2.59.13-5.24.44-7.18-1.9-1.19-1.45-2.57-2.74-3.62-4.3a1.61,1.61,0,0,0-1.14-.79c-.87-.1-1.46,0-1.33,1.13.12,1,0,2,.07,3,.07,1.27.12,2.6,2.14,2.43Z"/><path class="cls-1" d="M82.45,28.8c1.36-.21,1.88-.81,1.92-2.4,0-1.75,0-3.51,0-5.27,0-2.44,0-4.87,0-7.31,0-.49-.29-1.18.24-1.44s.9.37,1.27.7c3.57,3.07,7.11,6.17,10.67,9.25.8.7,1.64,1.36,2.6,2.15v-10c0-1.17-.92-1.38-1.78-1.72h5.47c-2.32.34-1.78,2.16-1.8,3.6,0,3.87,0,7.75,0,11.62,0,.52.31,1.27-.31,1.51s-1-.45-1.37-.8c-4-3.56-8.07-7.15-12.1-10.72a1.29,1.29,0,0,0-1-.52v2.2c0,1.84,0,3.67,0,5.51s-.21,3.62,2.62,3.59l-.25.44H82.23C82.14,29,82.26,28.87,82.45,28.8Z"/><path class="cls-3" d="M77.8,44.66a4.9,4.9,0,0,0-.09,2c0,1.87,0,3.75,0,5.63s-.33,3.72,2.66,3.67l-.31.32H73.92c2.06-.56,1.83-2.25,1.83-3.82,0-3.88,0-7.75,0-11.63,0-.4-.2-1,.32-1.16s.72.25,1,.49c4,3,7.41,6.67,11.28,9.83.67.54,1.34,1.1,2,1.62a.34.34,0,0,0,.29-.39c0-2.8,0-5.6,0-8.39,0-2-.07-2-1.89-2.72h5.6c-1.62-.06-1.83,1-1.84,2.23q0,6.23-.08,12.45c0,.32,0,.64,0,1s.12.84-.22,1-.73-.22-1-.47c-1.62-1.42-3.23-2.86-4.84-4.29-2.63-2.32-5.26-4.65-7.9-7C78.28,44.83,78.16,44.57,77.8,44.66Z"/><path class="cls-1" d="M186.41,12.42c4.59,0,8.25,2.55,9.21,6.37,1.57,6.31-3,11.41-9.67,10.8-3.31-.3-6.21-1.44-7.79-4.57A8.61,8.61,0,0,1,186.41,12.42Z"/><path class="cls-1" d="M210.86,8.32a14.83,14.83,0,0,1,3.32.38,1.9,1.9,0,0,0,.94.05c1-.34.92,0,.76.84a26.79,26.79,0,0,0-.17,2.86c0,.27,0,.72-.45.73s-.44-.38-.45-.7A2.85,2.85,0,0,0,212.9,10a5.61,5.61,0,0,0-4.09-.25A2.84,2.84,0,0,0,206.63,12a3.18,3.18,0,0,0,1.2,3.19,30.64,30.64,0,0,0,4.46,2.53,19.75,19.75,0,0,1,2.21,1.42c3,2.17,3.68,7.73-1.24,9.78-3,1.25-5.92.92-8.88,0-.2-.07-.51-.27-.52-.44a8.54,8.54,0,0,1,.19-3.66c.07-.19.22-.38.45-.29s.19.22.24.35c1.17,3.12,3.22,4.21,6.47,3.41a3.36,3.36,0,0,0,1.44-6,38.07,38.07,0,0,0-5.33-3.18A6.32,6.32,0,0,1,204,14.79c-.7-3.47,1.24-5.91,5-6.38C209.66,8.33,210.26,8.35,210.86,8.32Z"/><path class="cls-1" d="M57,8.38c1.25-.11,2.52.49,3.66.31,1.9-.3,1.45.74,1.42,1.76a12.19,12.19,0,0,1-.22,2.26c-.05.25-.13.48-.43.48s-.31-.3-.37-.52a4.63,4.63,0,0,0-7-2.55,3.06,3.06,0,0,0-.1,5,22.91,22.91,0,0,0,4.25,2.43,12.42,12.42,0,0,1,3.21,2.26,5.48,5.48,0,0,1-.87,8.44C58,30,55.18,30,52.28,29.38c-.51-.11-1-.26-1.5-.4s-.73-.22-.76-.66A10.65,10.65,0,0,1,50.17,25c0-.21.15-.5.45-.49s.32.31.38.53a5.23,5.23,0,0,0,7.87,2.62,3.37,3.37,0,0,0,0-5.29,29.61,29.61,0,0,0-4.79-2.92c-.44-.26-.91-.5-1.33-.8A6.23,6.23,0,0,1,50.28,12c.58-2,2.53-3.4,5.26-3.63C56,8.35,56.5,8.38,57,8.38Z"/><path class="cls-1" d="M174.72,13c-.32,1.29,0,2.6-.44,3.81-.15,0-.29,0-.29-.07-.14-1.73-1.46-2.16-2.8-2.63a12.72,12.72,0,0,0-4.7-.7,5.42,5.42,0,0,0-5.34,4.6,12.4,12.4,0,0,0,.65,6.71A6.21,6.21,0,0,0,170,28.1a1.62,1.62,0,0,0,1.16-1.62c0-.8,0-1.6,0-2.4.1-1.37,0-2.58-1.9-2.79a33.36,33.36,0,0,1,6.9-.13c-2.39.46-1.9,2.14-1.93,3.58,0,1,0,1.92,0,2.88a1,1,0,0,1-.79,1.15c-3.72,1.1-7.48,1.38-11.13-.11s-5.31-4.74-4.84-8.73a8.35,8.35,0,0,1,6.68-7.24,20.83,20.83,0,0,1,8.43.33A3.2,3.2,0,0,0,174.72,13Z"/><path class="cls-1" d="M243.18,29.29c1.61-1.08,1.53-1.26.93-3.13C243.42,24,242.27,23,240,23.45a.48.48,0,0,1-.12,0c-3.53,0-3.53,0-4.81,3.31-.52,1.33-.41,1.53,1,1.83.23,0,.49.06.62.31-.57.37-5,.41-6.11-.11,2.43-.05,2.84-1.81,3.53-3.3q3-6.33,5.93-12.65c.16-.33.18-.89.7-.85s.43.51.58.82c2.12,4.54,4.25,9.09,6.34,13.65.47,1,1,1.89,2.25,2.06.25,0,.49.14.5.42s-.27.35-.51.35Z"/><path class="cls-1" d="M82.45,28.8l-.22.41H75.07C77,28.08,77,28,76.07,26c-1.43-3-.56-2.45-3.89-2.52h-.24c-3.53,0-3.53,0-4.81,3.32-.51,1.32-.4,1.52,1,1.82.26.05.58,0,.69.49H62.94l-.17-.33c2.14.06,2.59-1.54,3.24-2.94l6.08-13c.16-.34.17-.88.69-.84s.44.52.58.82c2,4.19,3.91,8.37,5.82,12.58C79.88,26.93,80.52,28.47,82.45,28.8Z"/><path class="cls-3" d="M103.71,40c2.55-.08,4.78.19,7.09,0-1.25.45-1.06,1.2-.65,2q2.37,4.76,4.76,9.5c.35.7.61.55.92-.06,1.55-3.1,3.14-6.17,4.69-9.28.37-.76.74-1.63-.59-2.1,1.61-.12,3.16.07,4.75-.11-1.51.5-2.09,1.71-2.71,2.95-2.18,4.39-4.42,8.74-6.66,13.1-.17.34-.23.85-.72.86s-.56-.5-.74-.84c-2-3.89-3.95-7.82-6-11.67C106.23,41.47,107.09,41.58,103.71,40Z"/><path class="cls-3" d="M210.47,40a.87.87,0,0,1,.84-.34,13.41,13.41,0,0,0,3.69,0c.35,0,.84-.11.91.33s-.44.32-.71.4A4.69,4.69,0,0,0,213,42c-1.62,1.87-3.22,3.76-4.84,5.63a2.48,2.48,0,0,0-.66,1.38,36.67,36.67,0,0,0,0,5.74,1.24,1.24,0,0,0,1.17,1.17c.28.06.65-.1.92.44h-7.24c.65-.48,1.51-.41,1.79-1.17a10.17,10.17,0,0,0,.19-2.13,7.91,7.91,0,0,0-2.54-7.32A25,25,0,0,1,199.56,43c-1.66-2.05-1.66-2.05-4-3.11h7c-1.29.47-.82,1.16-.3,1.81,1.31,1.62,2.63,3.22,3.95,4.82.21.25.42.68.82.17,1.3-1.67,2.78-3.19,3.93-5C211.41,41,211.73,40.27,210.47,40Z"/><path class="cls-3" d="M135.64,45.63v4.24a4.45,4.45,0,0,0-4.39-1.47c-.39.12-.36.37-.36.64,0,1.8,0,3.6,0,5.4,0,.79.55,1,1.15,1.12,1.58.22,3.05.09,4-1.52,0-.08.19-.1.3-.15.21,1.74-.6,2.74-2.17,2.71a66,66,0,0,0-7.17,0c-.38,0-.81.1-1.12-.25,0-.08,0-.21.06-.21,1.47-.16,1.78-1.12,1.78-2.41,0-3.87,0-7.75,0-11.62a1.63,1.63,0,0,0-1.92-1.84c.18-.56.52-.42.76-.41,3,.14,6,.06,9,0,.35,0,.94-.25,1,.3a3.25,3.25,0,0,1,0,2.09c-.2.36-.49.19-.56-.16-.23-1.14-1.1-1.25-2-1.28-3.18-.11-3.18-.1-3.18,3a5.77,5.77,0,0,0,0,.72c.09.85-.43,2.09.25,2.49.9.53,2.16.19,3.27.12C135.16,47.13,135,46.14,135.64,45.63Z"/><path class="cls-1" d="M275.55,26.61c.16,1.68-.66,2.68-2.18,2.68h-7.19a2.18,2.18,0,0,1-1.13-.14c0-.13,0-.26,0-.26,1.55-.17,1.81-1.19,1.8-2.53,0-3.51,0-7,.06-10.54,0-2.2,0-2.2-1.92-3,.12-.34.42-.3.66-.29a81.34,81.34,0,0,0,9,0c.38,0,1-.28,1.11.34a3.85,3.85,0,0,1,0,2.23c-.15.3-.43.12-.5-.15-.33-1.15-1.21-1.35-2.24-1.36-3,0-3,0-3,3,0,.24,0,.48,0,.72.09.86-.42,2.07.24,2.5.85.55,2.08.16,3.16.15.9,0,.81-1,1.54-1.69.05,1.57-.21,2.83-.1,4.21-.81-2.17-2.58-1.28-4-1.45-.51-.06-.7.15-.7.67q0,2.7,0,5.4a1,1,0,0,0,1,1.08c1.59.16,3.15.17,4.06-1.53C275.28,26.68,275.44,26.66,275.55,26.61Z"/><path class="cls-3" d="M183.89,56.36a.7.7,0,0,1,.68-.38c.89,0,1.21-.5,1.24-1.39.15-4.11.13-8.22,0-12.33,0-.84-.32-1-1.06-1a9.89,9.89,0,0,1-1.44,0c-1.33-.06-2.67-.18-3.33,1.52a4.32,4.32,0,0,1,.27-2.85c.07-.28.27-.29.56-.26,3.89.5,7.81.19,11.71.2,2.79,0,2.82-.06,1.95,2.87-.27-1.37-1.12-1.58-2.12-1.55s-1.92,0-2.88,0c-.42,0-.32.38-.32.64l0,12.21c0,1.13.48,1.82,1.68,1.89a.57.57,0,0,1,.55.39Z"/><path class="cls-1" d="M229.12,29.21h-7.28c0-.12.08-.24.11-.24,1.52-.07,1.77-1,1.79-2.32.06-3.79.06-7.58,0-11.37,0-1-.37-1.25-1.26-1.15a7.59,7.59,0,0,1-1.43,0c-1.3-.11-2.49,0-3.14,1.47a4.06,4.06,0,0,1,.3-2.89c.07-.23.3-.18.51-.16a91.92,91.92,0,0,0,12.53.16c1.78,0,1.79-.06,1.47,1.64a1.66,1.66,0,0,1-.39,1.11c-.24-1.58-1.41-1.36-2.45-1.36-2.85,0-2.81,0-2.87,2.92s-.13,6.07,0,9.1C227.1,28.37,227.12,28.37,229.12,29.21Z"/><path class="cls-1" d="M155.55,26.54c.11,2-.54,2.75-2.28,2.75h-6.94a2.74,2.74,0,0,1-1.24-.14,1.1,1.1,0,0,1,.08-.29c1.38-.13,1.78-.94,1.86-2.26.23-3.79.06-7.58.12-11.37,0-1.29-.34-2.31-2-2.21.13-.51.45-.45.69-.43a83.87,83.87,0,0,0,9,0c.39,0,1-.25,1.11.33a3.58,3.58,0,0,1-.07,2.22c-.14.26-.44.26-.53-.06-.42-1.49-1.61-1.43-2.79-1.43-2.51,0-2.51,0-2.51,2.46,0,1,0,2.08,0,3.12,0,.69.23.92.9.87s1.43,0,2.15,0,1.21-.14,1.31-.94c0-.23.1-.53.39-.49s.34.36.28.58a9.08,9.08,0,0,0-.07,3.25c-.22,0-.38,0-.42-.07-.27-.46-.28-1.18-1-1.23-1-.06-2.08-.06-3.11,0-.35,0-.31.4-.31.68,0,1.76,0,3.51,0,5.27,0,.82.52,1.13,1.22,1.19C153.06,28.44,154.63,28.34,155.55,26.54Z"/><path class="cls-1" d="M248.31,15.64a5.49,5.49,0,0,1,.39-2.82c.06-.27.29-.32.57-.28,4.09.52,8.2.23,12.3.19,1.91,0,1.91-.05,1.67,1.82,0,.27,0,.56-.34.84-.4-1.61-1.69-1.28-2.81-1.29-2.54,0-2.55,0-2.56,2.55,0,3.08,0,6.16,0,9.23,0,2.37.07,2.45,2.19,3.27h-7.18a.7.7,0,0,1,0-.16c1.73-.09,1.79-1.29,1.78-2.6,0-3.63,0-7.27,0-10.9,0-1-.33-1.56-1.45-1.36a8,8,0,0,1-1.2,0C249.7,14.14,249.7,14.14,248.31,15.64Z"/><path class="cls-3" d="M159.2,52.45c1.07,2.82,2.26,3.55,5.1,3.19A2.58,2.58,0,0,0,166.6,54a2.65,2.65,0,0,0-.58-3,16.8,16.8,0,0,0-4.31-2.75,5.46,5.46,0,0,1-2.89-3.62A3.83,3.83,0,0,1,161.33,40a9.31,9.31,0,0,1,5.07-.3,3.83,3.83,0,0,0,2.17,0c-.15,1.33.07,2.57-.37,3.73-.32.06-.37-.12-.42-.33a3.68,3.68,0,0,0-5.37-2.28,2.47,2.47,0,0,0-.36,4.06,13.87,13.87,0,0,0,2.84,1.76c.85.51,1.76,1,2.55,1.54a4.35,4.35,0,0,1,.48,6.86c-2.3,2.33-6.29,2.16-8.87,1.08a.71.71,0,0,1-.33-.31A5.47,5.47,0,0,1,159.2,52.45Z"/><path class="cls-1" d="M117.06,84.87h2c.5,0,.77.38.38.62-1.2.71-.67,1.79-.62,2.68s-.19,1.09-.9,1.31a11.85,11.85,0,0,1-6.72.35c-3.25-.87-4.84-3.39-4.56-7a6,6,0,0,1,5.51-5.28,13.52,13.52,0,0,1,5.68.5c.66.21.94.5.76,1.19-.06.23,0,.49-.12.7-.18.45.24,1.27-.41,1.32-.84.05-.29-.8-.45-1.21a2,2,0,0,0-1.25-1c-2.52-1.14-5.61-.15-6.63,2.1-1.23,2.72,0,6.47,2.4,7.61a4.71,4.71,0,0,0,2.1.36c1.94,0,2.54-.88,2-2.77-.19-.66-.75-.45-1.17-.58-.27-.09-.71.12-.71-.4s.48-.39.78-.41C115.78,84.84,116.42,84.86,117.06,84.87Z"/><path class="cls-1" d="M147.44,90.31c-1.21-1.1-1.06-2,.46-3.34-1.47-1.06-1.84-1.93-1.44-3.38a3.07,3.07,0,0,1,3-2.07,5.08,5.08,0,0,1,3.13.56c.51.34,1.08.12,1.63.18.26,0,.7-.23.66.35,0,.33.07.8-.51.73s-.79.26-.83.89a3,3,0,0,1-2.51,2.82,8.83,8.83,0,0,1-1.78.2c-.43,0-.7.19-.74.61s.28.63.68.63c.88,0,1.76,0,2.63,0,1.18,0,2.39-.12,2.92,1.27a3.77,3.77,0,0,1-1.22,3.78,6.31,6.31,0,0,1-5.91.84,2.42,2.42,0,0,1-1.84-2.14C145.68,91.11,146.63,90.82,147.44,90.31Z"/><path class="cls-1" d="M143.24,29.21H136.3c0-.15,0-.28,0-.29,1.7-.57,1.77-.65,1.77-2.54,0-3.48,0-6.95,0-10.43,0-2.23,0-2.23-2.12-3.21,2.52,0,4.72.07,6.91-.05-1.71,1.17-1.71,1.17-1.71,3.49,0,3.12,0,6.23,0,9.35,0,1.58-.23,3.27,2.29,3.34Z"/><path class="cls-3" d="M178.28,56.3c-2.44.1-4.77,0-7.21,0,2.34-.43,2-2.16,2-3.66,0-3.19,0-6.38,0-9.57,0-2.23,0-2.23-2-3,2.24,0,4.49,0,6.88,0-2.35.31-1.86,2-1.87,3.37,0,3,0,6.06,0,9.09C176.1,54.13,175.68,56,178.28,56.3Z"/><path class="cls-3" d="M103.06,40.06c-2,.29-1.88,1.68-1.87,3,0,3.23,0,6.47,0,9.7,0,2.5,0,2.5,2.44,3.54H96.37c0-.35.15-.42.35-.43,1-.06,1.38-.67,1.39-1.59q0-3.64,0-7.31c0-1.43,0-2.87,0-4.31,0-1.89,0-1.94-1.85-2.62C98.52,40.09,100.73,40,103.06,40.06Z"/><path class="cls-1" d="M129.45,85.66c0-2.82,1.58-4.4,4.36-4.38s4,1.35,4,4.21-1.71,4.63-4.47,4.65C130.77,90.16,129.44,88.63,129.45,85.66Z"/><path class="cls-1" d="M165.72,88.72a8.3,8.3,0,0,0-.8.61,2,2,0,0,1-2.41.49,1.91,1.91,0,0,1-1.11-2.07,2.11,2.11,0,0,1,1.34-2.2,18.44,18.44,0,0,1,2.41-.7c.76-.15.88-.52.65-1.17a1.4,1.4,0,0,0-1.33-1c-.62,0-1.2-.06-1.47.67-.1.26-.21.54-.6.42s-.27-.56-.2-.79c.33-1,1.29-1.3,2.11-1.58a2.81,2.81,0,0,1,3.87,2.83c0,1.07-.05,2.16,0,3.23,0,.64-.3,1.53.83,1.65.07,0,.16.26.16.4s-.22.2-.36.2H166.3C165.59,89.72,166,89.11,165.72,88.72Z"/><path class="cls-1" d="M125.09,89.94a4.32,4.32,0,0,1-3.76-6.63,4.58,4.58,0,0,1,5.48-1.65,3.18,3.18,0,0,1,1.57,3.24c-.11.69-.66.65-1.08.69a24.78,24.78,0,0,1-3.22.14c-1,0-1,.4-.77,1.14a2.76,2.76,0,0,0,3.62,1.61c.38-.12.93-.56,1.13,0s-.34.9-.87,1.11A5.41,5.41,0,0,1,125.09,89.94Z"/><path class="cls-1" d="M142.34,83c.8-.52,1-1.37,1.85-1.58s1.21-.17,1.06.79a5,5,0,0,0,0,1c0,.68-.05,1-.85.54-1.1-.65-2-.11-2,1.15,0,1,0,1.92,0,2.87s.07,1.35,1.06,1.26c.26,0,.58,0,.58.42s-.31.4-.59.4h-3.95c-.24,0-.5,0-.54-.32s.15-.5.49-.49c.63,0,.68-.4.68-.88,0-1.36,0-2.72,0-4.07,0-.61,0-1.14-.83-1.11a.38.38,0,0,1-.44-.44c0-.3.21-.39.46-.44.82-.19,1.64-.35,2.44-.58.38-.12.51,0,.53.34S142.32,82.54,142.34,83Z"/><path class="cls-1" d="M159.18,81.29c0,2.11,0,4.14,0,6.17,0,.67-.15,1.45.93,1.41a.35.35,0,0,1,.37.38c0,.3-.17.41-.46.41a29,29,0,0,0-4.06.15.33.33,0,0,1-.41-.32c0-.27.19-.3.4-.32.85-.1.95-.71.94-1.4,0-1.28,0-2.55,0-3.83,0-.61-.08-1.13-.87-1.14-.23,0-.48,0-.48-.37s.2-.39.47-.41A18.45,18.45,0,0,0,159.18,81.29Z"/><path class="cls-1" d="M157.8,77.18a1.29,1.29,0,0,1,1.47,1.36A1.22,1.22,0,0,1,158,79.82c-.91.07-1.33-.57-1.36-1.34A1.28,1.28,0,0,1,157.8,77.18Z"/><path class="cls-4" d="M36.23,31.29c0,8.43,0,16.86,0,25.3,0,1.1-.32,1.27-1.32,1.27q-16.3-.06-32.6,0c-1,0-1.22-.29-1.22-1.25q0-25.24,0-50.49a1.57,1.57,0,0,1,1.1-1.69A40.39,40.39,0,0,1,20.66,1.16,41.19,41.19,0,0,1,35,4.19,1.73,1.73,0,0,1,36.25,6.1C36.21,14.5,36.23,22.89,36.23,31.29Z"/><path class="cls-5" d="M118.19,18.62c0-2.8,0-5.07,0-7.35,0-1.07.42-1.54,1.5-1.5a21.62,21.62,0,0,1,3.93.24,8.81,8.81,0,0,1,7,7.8,12.73,12.73,0,0,1-.42,5.45,6.37,6.37,0,0,1-4.49,4.4,12.13,12.13,0,0,1-5.68.18A1.9,1.9,0,0,1,118.34,26C118.05,23.36,118.29,20.72,118.19,18.62Z"/><path class="cls-5" d="M144.08,44.79V42.05c0-.77.34-1.18,1.15-1.16a3.68,3.68,0,0,1,3.48,1.88,4.36,4.36,0,0,1,0,4.23,2.55,2.55,0,0,1-2.54,1.21c-2.11,0-2.11,0-2.11-2.1Z"/><path class="cls-5" d="M180.75,20.28a10.35,10.35,0,0,1,.48-3.18,5.15,5.15,0,0,1,8.94-1.92,10.44,10.44,0,0,1,2.17,9.65,4.58,4.58,0,0,1-4,3.65,5.84,5.84,0,0,1-6.12-2.62A10.22,10.22,0,0,1,180.75,20.28Z"/><path class="cls-5" d="M236.94,22.29l2.66-5.61c.77,1.66,1.45,3.13,2.15,4.6.33.69.22,1-.63,1C239.81,22.27,238.49,22.29,236.94,22.29Z"/><path class="cls-5" d="M71.6,16.67c.84,1.82,1.57,3.39,2.29,5,.25.54-.11.65-.5.65-1.42,0-2.84,0-4.44,0Z"/><path class="cls-5" d="M150.53,89.94c.23,0,.47,0,.71,0,.7,0,1.45,0,1.65.81a1.87,1.87,0,0,1-.91,2.16,3.74,3.74,0,0,1-3.23.2,1.51,1.51,0,0,1-1-1.81A1.57,1.57,0,0,1,149.21,90c.44,0,.88,0,1.32,0Z"/><path class="cls-5" d="M151.31,84.39c-.05.72-.08,1.65-1.29,1.74-1,.07-1.5-.63-1.51-2s.41-2,1.34-2S151.31,82.86,151.31,84.39Z"/><path class="cls-5" d="M135.53,86a14.74,14.74,0,0,1-.18,1.9A1.53,1.53,0,0,1,134,89.24a1.44,1.44,0,0,1-1.52-.94,5.91,5.91,0,0,1-.06-5.08,1.49,1.49,0,0,1,1.33-.89,1.46,1.46,0,0,1,1.37,1A7.49,7.49,0,0,1,135.53,86Z"/><path class="cls-5" d="M166,86.82c0,.42.11.9-.3,1.21a1.38,1.38,0,0,1-1.42.35,1,1,0,0,1-.61-.93,1.2,1.2,0,0,1,.61-1.3c.14-.07.29-.11.44-.17C166,85.47,166,85.47,166,86.82Z"/><path class="cls-5" d="M124.46,85c-.4-.29-1.21.38-1.24-.65a1.66,1.66,0,0,1,1.52-1.89c1.05,0,1.32.76,1.35,1.62C126.15,85.47,125,84.63,124.46,85Z"/><path class="cls-3" d="M24.72,23.54c.22-.46,0-.77-.28-1.13s-.75-.66-.38-1.23a.49.49,0,0,0-.16-.72.48.48,0,0,0-.57,0,.5.5,0,0,0-.08.74c.23.31.1.5-.19.71a5.83,5.83,0,0,1-.72-4.35c.11-.84-.82-1.39-.38-2.23.07-.12-.26-.24-.47-.24s-.42.11-.41.34a4.86,4.86,0,0,0,.19.84c-1.55-1.56-2.09-2.52-1.28-4.76.19-.51-.25-.46-.43-.63-1.88-1.69-3.92-1.3-6-.46a2.07,2.07,0,0,1-.79.51c-.76.25-1,.67-.83,1.52.22,1.09-.43,1.94-1.59,2.47-.47-.39-.63-.19-.62.34a10.59,10.59,0,0,0-.13,2.25c0,.27,0,.61-.36.69s-.4-.22-.5-.42a3.83,3.83,0,0,0-2-1.75,2.45,2.45,0,0,1-1.2-.94,5.54,5.54,0,0,0-3-2.66c0-2,0-4.07-.06-6.11,0-.77.51-.89,1-1.11A37.47,37.47,0,0,1,18.66,2.11,39.9,39.9,0,0,1,34.06,5c.57.23,1,.45,1,1.25,0,5.55.09,11.1.13,16.65,0,.34.13.72-.16,1a3.68,3.68,0,0,1-1.74-.2,16,16,0,0,0-3.91-.28.72.72,0,0,1-.66-.3c.22-1,1.19-.87,1.82-1.26-1.47.54-3,1.05-4.45,1.52C25.64,23.59,25.19,23.87,24.72,23.54Z"/><path class="cls-5" d="M29.26,23.27A16.76,16.76,0,0,1,35,24c0,.88-.51.34-.78.27A13.74,13.74,0,0,0,28,24c-.78.16-1.13.42-1.11,1.32.08,2.51,0,5,0,7.54a7,7,0,0,0,.5,2.89c.42.95.93,2.57-.4,3.65-.11.09-.11.37-.11.56V53.74c1.58-1.76,3.45-2,5.5-1.68,1,.15,1.59-1,2.65-1.22,0,1.8,0,3.53,0,5.27,0,.78-.57.52-.93.52H20.92c-5.75,0-11.49,0-17.24,0-1.11,0-1.33-.32-1.28-1.34.08-1.79.06-3.59,0-5.39,0-.85.33-.93,1.07-1C5,48.9,5.72,50.72,7.22,50.61a4.7,4.7,0,0,1,3.88,1.48,2.06,2.06,0,0,0,1.35.4c2.26-.21,4.53,0,6.8-.09A5.87,5.87,0,0,0,21,52.25c-1.89-.11-3.78-.08-5.68-.09s-2-.2-2-2.08c0-1.39-.06-2.79,0-4.18a3,3,0,0,1,1.91-2.8,2.66,2.66,0,0,1,3.06.75c.2-1-.23-2.09.33-3.05,0-2.68-2.09-4.7-5.17-4.75-1,0-1.18-.28-1-1.11.39-3.28,5.56-5.55,9-2a11.84,11.84,0,0,0,.28-3c-.76-.53-1.69-.25-2.7-.52l1.47-1.66c-.1-.08-.15-.16-.21-.18-.67-.22-1.83.18-2-.37a9.68,9.68,0,0,1,0-3.56c.07-.58.8-.74,1.38-.65a1.44,1.44,0,0,1,1.39,1.38c.05.8,0,1.6,0,2.54a3.45,3.45,0,0,0,1.56-1.59,2.92,2.92,0,0,1,2.08-1.71l6.74-2.13.13.23L28.78,23C28.74,23.43,28.74,23.43,29.26,23.27Z"/><path class="cls-5" d="M2.47,12.44A2.94,2.94,0,0,1,5.3,14.28,3,3,0,0,0,7,15.84,3.42,3.42,0,0,1,9.2,18.1c.46-1.06-.36-2.12.41-3a.61.61,0,0,1,.67-.21c1.09-.8,1.9-1.71,1.13-3.17-.12-.22-.1-.39.12-.49.68-.27,1.23-.88,2-.8,1.1.9.63,3.79-.42,4.62-.45.35-.52-.14-.47-.42.07-.43,0-.76-.48-.72s-.29.43-.38.75c-.41,1.51.29,3.09-.37,4.55-.12.27,0,.92-.68.69-.16-.19,0-.48-.23-.65-.19.18-.08.46-.23.65l-.14.11c-.3.46-.7.24-1.05.11-.82-.29-1.65-.55-2.47-.83-1.18-.41-2.33-1-3.63-.38a.56.56,0,0,1-.55-.15Z"/><path class="cls-6" d="M18.62,40.8v3.57c-.38.08-.47-.26-.66-.43a2.36,2.36,0,0,0-2.52-.59,2.47,2.47,0,0,0-1.76,2.33c-.07,1.79,0,3.59,0,5.38,0,.71.38.75.91.74q3.35,0,6.69,0c.29,0,.71-.13.73.37s-.27.55-.64.55l-8.6,0c-.09,0-.19-.13-.28-.2l.06-7.9a3.24,3.24,0,0,0,0-1.42c0-1.51.56-2.17,2.25-2.65A6.76,6.76,0,0,1,18.62,40.8Z"/><path class="cls-7" d="M15.57,25.32c-.07.47.25,1.44-.14,1.56a6.87,6.87,0,0,1-2.43,0c-.44,0-.3-.39-.3-.63,0-.84,0-1.67,0-2.5s.55-1.3,1.31-1.34a1.37,1.37,0,0,1,1.56,1.29A14.92,14.92,0,0,1,15.57,25.32Z"/><path class="cls-8" d="M21.73,29.86a3.78,3.78,0,0,1,.06.47v3.38a7.28,7.28,0,0,0-2.23-1.82,5.12,5.12,0,0,0-6.75,2.45c-.11.21-.23.4-.35.6.1-3.27,3.23-5.17,6.75-4.13a10,10,0,0,1,2.37,1.25Z"/><path class="cls-9" d="M2.47,18.76c2.43-1.19,4.41.51,6.58,1,.37.09.69.41,1.12.22.68.72,1.82.59,2.47,1.35-.44.38-.89.18-1.34,0a20.25,20.25,0,0,0-7.73-1,1.22,1.22,0,0,1-1.1-.27Z"/><path class="cls-10" d="M20.09,19.94v.36c0,1.31-1.07,2-2,1.19s-.19-2-.28-3.06a.82.82,0,0,1,.76-.92,1.21,1.21,0,0,1,1.52,1.12,9.55,9.55,0,0,1,0,1.31Z"/><path class="cls-7" d="M13.61,19.17c0-.35,0-.71,0-1.07a1,1,0,0,1,.89-1.18,1,1,0,0,1,1.24.87,21.31,21.31,0,0,1,.09,3.2c0,.6-.6.35-.83.27-.48-.16-1.31.32-1.38-.66C13.58,20.13,13.61,19.65,13.61,19.17Z"/><path class="cls-11" d="M17.86,14.42a1.48,1.48,0,0,1,0,.47c-.15.38.41,1.23-.53,1.08-.65-.11-1.84.27-1.65-1.18a17.8,17.8,0,0,0,0-1.79c0-.63.25-1.06,1-1.07a1,1,0,0,1,1.15.94,11.44,11.44,0,0,1,0,1.55Z"/><path class="cls-12" d="M9.58,35.39a2.23,2.23,0,0,1,0,.82c-.13.34.49,1.1-.47,1-.63-.08-1.53.14-1.41-1,.08-.74,0-1.5,0-2.25a.92.92,0,0,1,.92-1c.65,0,.9.43.94,1s0,1,0,1.54Z"/><path class="cls-13" d="M6.74,34.88a7.66,7.66,0,0,1,0,.83c-.06.46.32,1.13-.72,1.06-.81-.06-1.26-.15-1.14-1.11a19.1,19.1,0,0,0,0-2.14c0-.61.31-1,.9-1.05s1,.44.94,1.1C6.73,34,6.74,34.44,6.74,34.88Z"/><path class="cls-14" d="M2.47,20.14a23.94,23.94,0,0,1,9.58,1.16,1.91,1.91,0,0,0,.59.05c.34.13.75.26.56.72s-.58.23-.9.09A17.92,17.92,0,0,0,3.48,20.7C3.13,20.73,2.31,21.18,2.47,20.14Z"/><path class="cls-15" d="M10.31,19.9c-.09-.4-.65-.82.06-1.18a.45.45,0,0,1,.54.11c.35.4,0,.72-.14,1.07Z"/><path class="cls-16" d="M12.51,43.17a1.31,1.31,0,0,1,0,1.42Z"/><path class="cls-17" d="M10.28,14.89c-.17.26-.43.19-.67.21-.19-.36-.42-.8.18-.93S10.29,14.53,10.28,14.89Z"/><path class="cls-16" d="M29.26,23.27a.94.94,0,0,1-1,.14c.11-.27.35-.3.56-.37Z"/><path class="cls-18" d="M19.62,53.25c1.64,0,3.27,0,4.91,0,.33,0,.81-.14.85.39s-.49.51-.86.51q-4.66,0-9.33,0a2.88,2.88,0,0,1-.59,0,.65.65,0,0,1-.51-.61c0-.46.4-.26.63-.27,1.63,0,3.27,0,4.9,0Z"/><path class="cls-19" d="M26.28,35.51V38.7c0,.28,0,.62-.36.64s-.33-.35-.34-.6c0-.75,0-1.51,0-2.26C25.6,36,25.61,35.58,26.28,35.51Z"/></g></g></svg>